<svg xmlns="http://www.w3.org/2000/svg" xmlns:xlink="http://www.w3.org/1999/xlink" viewBox="0 0 682.46 588.48"><defs><style>.cls-1{fill:none;}.cls-2{fill:#89afdf;}.cls-3{clip-path:url(#clip-path);}.cls-4{font-size:43.25px;fill:#404990;font-family:Arial-BoldMT, Arial;font-weight:700;}.cls-5{letter-spacing:-0.06em;}</style><clipPath id="clip-path" transform="translate(28.72 50.4)"><path class="cls-1" d="M550.12,42.94c-58.63-58.63-157.19-56-219,5.84L296.26,83.61,261.43,48.78c-61.84-61.84-160.4-64.47-219-5.84s-56,157.18,5.84,219l34.84,34.83L296.26,510,509.44,296.79,544.28,262C606.11,200.12,608.74,101.56,550.12,42.94Z"/></clipPath></defs><title>blue-binary-heart</title><g id="Layer_2" data-name="Layer 2"><g id="Layer_1-2" data-name="Layer 1"><text x="28.72" y="50.4"/><path class="cls-2" d="M550,42.31c-58.63-58.63-157.19-56-219,5.84L296.16,83,261.33,48.15c-61.84-61.84-160.4-64.47-219-5.84s-56,157.18,5.84,219L83,296.16,296.16,509.34,509.34,296.16l34.83-34.83C606,199.49,608.64,100.93,550,42.31Z" transform="translate(28.72 50.4)"/><g class="cls-3"><text class="cls-4" transform="translate(0 37.11)">0010101010010100101010100001<tspan x="0" y="43.25">010100</tspan><tspan class="cls-5" x="144.34" y="43.25">1</tspan><tspan x="166.01" y="43.25">10100010</tspan><tspan class="cls-5" x="358.45" y="43.25">11</tspan><tspan x="401.79" y="43.25">10101010010</tspan><tspan x="0" y="86.51">1010100101001010101000010101</tspan><tspan x="0" y="129.76">00</tspan><tspan class="cls-5" x="48.11" y="129.76">1</tspan><tspan x="69.78" y="129.76">10100010</tspan><tspan class="cls-5" x="262.23" y="129.76">11</tspan><tspan x="305.57" y="129.76">101010100101010</tspan><tspan x="0" y="173.02">10010100101010100001010100</tspan><tspan class="cls-5" x="625.46" y="173.02">1</tspan><tspan x="647.13" y="173.02">1</tspan><tspan x="0" y="216.27">0100010</tspan><tspan class="cls-5" x="168.39" y="216.27">11</tspan><tspan x="211.73" y="216.27">1010101001010101001</tspan><tspan x="0" y="259.53">0100101010100001010100</tspan><tspan class="cls-5" x="529.23" y="259.53">1</tspan><tspan x="550.9" y="259.53">10100</tspan><tspan x="0" y="302.78">010</tspan><tspan class="cls-5" x="72.17" y="302.78">11</tspan><tspan x="115.51" y="302.78">10101010010101010010100</tspan><tspan x="0" y="346.03">101010100001010100</tspan><tspan class="cls-5" x="433.01" y="346.03">1</tspan><tspan x="454.68" y="346.03">101000101</tspan><tspan class="cls-5" x="0" y="389.29">1</tspan><tspan x="21.67" y="389.29">101010100101010100101001010</tspan><tspan x="0" y="432.54">10100001010100</tspan><tspan class="cls-5" x="336.78" y="432.54">1</tspan><tspan x="358.45" y="432.54">10100010</tspan><tspan class="cls-5" x="550.9" y="432.54">11</tspan><tspan x="594.24" y="432.54">101</tspan><tspan x="0" y="475.8">0101001010101001010010101010</tspan><tspan x="0" y="519.05">0001010100</tspan><tspan class="cls-5" x="240.56" y="519.05">1</tspan><tspan x="262.23" y="519.05">10100010</tspan><tspan class="cls-5" x="454.68" y="519.05">11</tspan><tspan x="498.02" y="519.05">1010101</tspan></text></g></g></g></svg>