<svg xmlns="http://www.w3.org/2000/svg" viewBox="0 0 1625.98 923.35"><defs><style>.cls-1{fill:#1e4e7a;}.cls-2{fill:#fc968b;}.cls-10,.cls-11,.cls-12,.cls-13,.cls-14,.cls-3,.cls-4,.cls-5,.cls-6,.cls-7,.cls-8,.cls-9{fill:none;stroke:#1e4e7a;stroke-miterlimit:10;}.cls-3{stroke-width:6px;}.cls-4{stroke-width:5.81px;}.cls-5{stroke-width:5.58px;}.cls-6{stroke-width:5.34px;}.cls-7{stroke-width:8.4px;}.cls-8{stroke-width:5.57px;}.cls-9{stroke-width:5.8px;}.cls-10{stroke-width:5.98px;}.cls-11{stroke-width:6.2px;}.cls-12{stroke-width:5.16px;}.cls-13{stroke-width:4.99px;}.cls-14{stroke-width:4.94px;}</style></defs><title>sf</title><g id="Layer_2" data-name="Layer 2"><g id="Layer_1-2" data-name="Layer 1"><path class="cls-1" d="M1076,258.33c10.76,5.23,81.1,38,84.28,38.83V287c-32.9-15.65-65.9-31.1-98.69-47C933.43,178,806.62,113.36,681.82,44.82q-5.79-3.18-11.57-6.37c-6.85-3.77-11-7.8-10.76-16,.07-3.11.56-7.63-2.81-9.22-5.13-2.42-11-1.69-16.37-.57-4.57,1-2.8,6-3.88,9.21-1.43,4.31,1,9.94-4.56,12.91-13.41,7.15-26.74,14.43-40.1,21.67Q573.42,66.65,555.1,76.82c-2.12,1.18-4,1.56-5.73-.63-4.94-6.14-10-12.21-16.19-19.86H573c-8.45-6.5-18-11.29-27.51-15.75C535.74,36,530,30,530.63,18.87c.14-2.58-.39-5.26-3.59-6.42-10.83-3.91-18.53.43-19.24,11.67-.41,6.54-2.78,10.57-8.85,13.33-7,3.19-13.53,7.42-20.31,11.13C338.75,125.2,196.42,197.07,52.48,265.74,35.1,274,18,283,0,289.91v11.6c27.84-12,54.94-25.64,82.31-38.7,12.25-5.84,12.2-5.95,12.19,7.56,0,10.36-.07,20.73,0,31.1,0,3.13-.49,5.33-3.8,6.81C60.46,321.88,30.24,335.65,0,349.37V361q43.8-20,87.58-40c4.6-2.12,7-3.21,7,3.9q-.24,247.2-.14,494.39c0,1-.14,1.93-.21,2.89h10.15c.08-3.38.23-6.75.24-10.13q0-244.93-.15-489.87c0-6.72,1.89-10.15,8.13-13,27.22-12.39,54.17-25.39,81.21-38.17,7.48-3.54,7.5-3.55,7.5,4.79q0,268.13,0,536.25c0,3.38.15,6.75.22,10.13h10.16c-.08-2.9-.23-5.79-.23-8.69q0-271.11-.16-542.23c0-6.45,1.76-9.7,7.73-12.51,27.95-13.16,55.68-26.79,83.34-40.54,5.22-2.59,6.26-1.16,5.86,3.84-.18,2.16,0,4.35,0,6.52q0,291.78,0,583.55c0,3.35.41,6.71.63,10.06h8.7c.22-3.35.63-6.71.63-10.06q0-296.09-.16-592.17c0-7.46,2.38-11,8.91-14.12,26.72-12.93,53.13-26.48,79.67-39.79,2.33-1.16,4.7-2.25,8.12-3.89v660h10.15q0-328.65-.14-657.31c0-6.19,1.7-9.49,7.37-12.1,18.17-8.36,35.25-18.91,53.62-26.89,3.64-2.74,8.29-7,11.8-5.36,3.35,1.58,1.25,7.87,1.25,12.06q.15,86,0,172c0,14.15,2.69,13-13.08,12.8-3.27,4.31-7.63,7.79-9.83,12.91,12.81.2,12.81.2,12.81,12.71q0,124.64,0,249.29c0,13.33,2.58,12.91-12.75,12.66l-10,12.46c12.63,1.22,12.63,1.22,12.63,13.87q0,95.43,0,190.87h40.61c0-38.16.06-76.33-.07-114.49,0-5.15.72-8.24,7-7.87,4.64.27,6.4,1.74,6.33,6.43-.2,12.55,0,25.12-.06,37.68q-.08,39.12-.17,78.25h40.61c.22-2.86.62-5.73.63-8.59,0-35.22.18-70.44-.12-105.66,0-6.53,1.61-9.31,8.39-8.43,3.8.49,7.71.17,11.57.22-8.33-13.36-19.13-24.8-28.81-37.1-13.75-17.46-27.77-34.69-41.83-51.89a14.52,14.52,0,0,1-3.55-9.84q.12-92.39,0-184.77c0-4.94.75-7.47,6.62-7.43s6.77,2.31,6.76,7.37q-.18,96-.08,192c0,9.61,0,9.62,9.31,9.62q15.57,0,31.16,0c-9.28-8.72-9.79-19.74-9.71-31.65.4-56.27.28-112.55,0-168.83,0-6.43,1.4-9,8.29-8.45,8.16.63,16.41.1,24.62.07-7.89-13-18.58-23.75-27.91-35.59-10.27-13-20.92-25.75-31.35-38.65-1-1.21-3-2.32-2-4.19s3-1,4.63-1c7.69-.14,15.39-.17,23.08-.23-8.77-8-9.69-18.16-9.6-29.47.46-54.3.31-108.6.08-162.89,0-6.19,1.35-8.51,7.95-8.14,10.1.56,20.26.06,30.4,0-7.78-12-17.69-22.25-26.58-33.33-6.83-8.51-6.89-8.36,2.81-13.6,18.05-9.76,36.11-19.48,54-29.52,5.11-2.87,6-1.42,6,3.68q-.12,127.47,0,254.94c0,11.27-8.14,5.32-13,6.43q-5,5.93-10,11.87c.39.28.75.72,1.18.8,11.62,2.27,11.63,2.26,11.63,14.31V593.72c0,12.55,0,12.55-13,11.56l-9.95,12.34c13.06.57,13,.57,13.06,14.08q.07,95.2.18,190.43H702q0-98.58.09-197.17c0-5.14-.8-9.47-4.72-13-4.62-4.17-5.65-9.4-5.64-15.56.17-86.26.07-172.53.22-258.79,0-5.67-.93-10.42-5.18-14.3-3.81-3.48-5-7.74-4.94-13q.24-88.44.1-176.88c0-8.12.05-8.16,7.53-4.31C704.23,136.8,719,144.58,733.85,152c3.74,1.87,5.64,4.1,5.2,8.35a78.43,78.43,0,0,0,0,8q0,321.86,0,643.71c0,3.35.41,6.71.63,10.06h8.71c.21-3.35.62-6.7.63-10.06q0-320.69,0-641.38c0-10.57,0-10.58,9.28-5.94,27.4,13.73,54.76,27.53,82.22,41.14,3.66,1.81,5.35,3.82,5.35,8.2Q845.68,517,845.73,820c0,.72-.13,1.44-.19,2.16h10.15c.08-3.38.23-6.76.23-10.14q0-293.28,0-586.55c0-2.18.12-4.36,0-6.53-.22-3.71.83-4.81,4.52-3q44.19,21.71,88.51,43.19c2.81,1.36,3.92,3.18,3.72,6.22-.19,2.89,0,5.8,0,8.7q0,269.7,0,539.42c0,2.9.15,5.79.23,8.69H963c-.07-3.14-.22-6.27-.22-9.41q0-268.58,0-537.13a19.81,19.81,0,0,0,0-2.18c-.72-6.28.92-7.33,6.93-4.41q41,20,82.46,38.95c5.78,2.64,7.51,5.75,7.51,11.93q-.27,246.09-.11,492.19c0,3.35.41,6.71.63,10.06h8.7c.22-3.35.63-6.71.63-10.06q0-241.8,0-483.59c0-1.21,0-2.42,0-3.63,0-4.16.17-6.24,1-7,2.26-2.18,9.76,2.18,10.34,2.52,9.22,5.35,30.36,15.14,62.84,29.3-.21-3.67-.41-7.35-.61-11-37.2-17.12-64.16-29.53-68.33-31.19a7.63,7.63,0,0,1-5.33-8.16q.4-18.45,0-36.91C1069.34,256.57,1070.86,255.84,1076,258.33Zm-874.55-47.4c-.3,6.73-.07,13.5-.07,20.25s-.17,13.51.06,20.25c.12,3.41-1.21,5.23-4.22,6.64q-43.81,20.6-87.53,41.39c-3.41,1.62-5.15,1.76-5.07-2.95.2-13.26.15-26.52,0-39.78,0-3.32,1.06-5.12,4.16-6.63q43.55-21.15,86.91-42.7C200,205.24,201.65,205.74,201.43,210.93Zm106.87-11.6c0,3.32-1.09,5.22-4.16,6.71Q259.5,227.63,215,249.44a26.39,26.39,0,0,1-3.44,1.05c0-16.38,0-32.24,0-48.1,0-2.73,1.74-3.71,3.73-4.71,29.28-14.8,58.6-29.54,87.81-44.48,4.45-2.28,5.3-1,5.25,3.38Q308.1,178,308.3,199.33Zm102.78-47.11q-44,22.1-87.89,44.34c-3.85,1.95-5,1.17-5-3.07.14-14.49.1-29,0-43.47,0-2.93.74-5,3.52-6.46,30.58-15.9,61.12-31.86,93-48.51,0,18-.06,34.91.06,51.77C414.86,149.78,413.42,151.05,411.08,152.22ZM498.73,65.1c.06,9.86,0,19.73,0,29.59.05,13.25.08,13.25-12.89,18.32L425,145.37c0-18.65.06-35.72,0-52.79,0-3,1.83-4.18,4-5.35l55.43-29.81c4.52-2.49,9.26-8.13,13.65-6C500.92,52.85,498.7,60.33,498.73,65.1ZM532.44,163V328.08c-8.35-8.43-13.65-15-13.52-26.21.65-55.07.37-110.16.19-165.24,0-5.75,1.23-8.41,7.57-8,4.43.29,5.89,1.86,5.81,6.12C532.3,144.18,532.44,153.6,532.44,163ZM648.77,468c-4.77-.16-6.18-1.89-6.17-6.49q.2-63.31,0-126.64c0-9,8.18-11,12-16.68l1.67.94c.11,1.64.33,3.29.33,4.93,0,45.35-.07,90.7.12,136.05C656.72,466.12,654.74,468.21,648.77,468Zm85.62-327q-24-12.65-48.09-24.92a7.76,7.76,0,0,1-3.63-3.28,9.46,9.46,0,0,1-.84-4.75c.23-7.46.07-14.94.07-22.41,0-7.95.07-15.9,0-23.85,0-3,.73-4.07,2.55-3.64a9.77,9.77,0,0,1,2.17.92Q711,72.43,735.47,85.58c2.34,1.27,3.57,2.83,3.56,5.65q-.13,23.49,0,47C739.05,142.08,738,142.89,734.39,141Zm106.84,54q-44.25-22.41-88.6-44.63c-2.43-1.22-3.62-2.81-3.61-5.61.07-15.46.09-30.93,0-46.39,0-4.75,1.87-4.53,5.23-2.76q43.88,23.13,87.85,46.06c3.18,1.65,3.78,3.86,3.73,7-.12,7.24,0,14.49,0,21.74s-.11,14.5.05,21.75C845.9,196,844.75,196.76,841.23,195Zm111.35,54.45c-10.52-5.08-20-9.62-29.5-14.24-20.59-10.05-41.12-20.25-61.8-30.12-4.11-2-5.54-4.34-5.45-8.83.28-13.77.19-27.54,0-41.3,0-4.14.46-5.88,5.07-3.52,29.22,14.94,58.53,29.69,87.8,44.52,1.94,1,3.87,1.91,3.86,4.66C952.56,216.46,952.58,232.31,952.58,249.43Zm106.92,46.05c0,6.9-4,2.75-6.09,1.78-24.89-11.61-49.37-24.19-74.68-34.78-12.83-5.36-18.7-12.41-16-26.13.45-2.32.06-4.81.06-7.23,0-6.75.06-13.51,0-20.26,0-3.56.33-5.75,4.8-3.53q44,21.82,88.23,43.4c2.42,1.19,3.77,2.65,3.75,5.49C1059.47,268,1059.57,281.73,1059.5,295.48Z"/><path class="cls-2" d="M593.35,699.67c-8.33-13.36-19.13-24.8-28.81-37.1-13.75-17.46-27.77-34.69-41.83-51.89a14.52,14.52,0,0,1-3.55-9.84q.12-92.39,0-184.77c0-4.94.75-7.47,6.62-7.43s6.77,2.31,6.76,7.37q-.18,96-.08,192c0,9.61,0,9.62,9.31,9.62q15.57,0,31.16,0l21.54,0c13.06.57,13,.57,13.06,14.08q.07,95.2.17,190.43h-13q-.14-56.25-.28-112.5C594.34,706.29,594.83,702.87,593.35,699.67Z"/><path class="cls-2" d="M465.55,822.13q0-97.32,0-194.64c0-3.37.25-6.74.39-10.1,12.63,1.22,12.63,1.22,12.63,13.87q0,95.43,0,190.87Z"/><path class="cls-2" d="M519.22,822.13c0-38.16.06-76.33-.07-114.49,0-5.15.72-8.24,7-7.87,4.64.27,6.4,1.74,6.33,6.43-.2,12.55,0,25.12-.06,37.68q-.08,39.12-.17,78.25Z"/><path class="cls-2" d="M591.77,56.49Q573.42,66.65,555.1,76.82c-2.12,1.18-4,1.56-5.73-.63-4.94-6.13-10-12.21-16.19-19.86H573Z"/><path class="cls-2" d="M604.4,605.28c0-62.91,0-125.81.26-188.72,0-6.8-2.67-8.47-8.5-7.82-7.88-13-18.58-23.75-27.91-35.59-10.27-13-20.92-25.75-31.35-38.65-1-1.21-3-2.32-2-4.19s3-1,4.63-1c7.69-.14,15.38-.17,23.08-.23h42c.39.28.75.72,1.18.8,11.62,2.27,11.63,2.26,11.63,14.31V593.72C617.43,606.27,617.42,606.27,604.4,605.28Z"/><path class="cls-2" d="M614.66,317.17c-1.92-58.14-.57-116.3-.69-174.44,0-13.92.66-13.91-13.12-13.95-3.13,0-6.27-.14-9.4-.21-7.78-12-17.69-22.25-26.58-33.33-6.83-8.51-6.89-8.36,2.81-13.6,18.05-9.76,36.11-19.48,54-29.52,5.11-2.87,6-1.42,6,3.69q-.12,127.45,0,254.93C627.62,322,619.48,316.06,614.66,317.17Z"/><path class="cls-2" d="M476,604.93c-.08-13.28-.24-26.57-.24-39.85q0-112.34,0-224.67c0-3.38.14-6.76.22-10.14,12.81.2,12.81.2,12.81,12.71q0,124.64,0,249.29C488.7,605.6,491.3,605.18,476,604.93Z"/><path class="cls-2" d="M485.78,317.36q0-95.76,0-191.53c3.64-2.74,8.29-7,11.8-5.36,3.35,1.58,1.25,7.87,1.25,12.06q.15,86,0,172C498.83,318.71,501.55,317.52,485.78,317.36Z"/><path class="cls-2" d="M532.44,328.08c-8.35-8.43-13.65-15-13.52-26.21.65-55.07.37-110.16.19-165.24,0-5.75,1.23-8.41,7.57-8,4.43.29,5.89,1.86,5.81,6.12-.19,9.42,0,18.84,0,28.26V328.08Z"/><path class="cls-2" d="M647.12,484.64q2.4-4.44,4.79-9.08,2.67-5.19,5.12-10.24-.22-45.39-.23-90.81,0-27,.05-54.1c-1-3.44-3.89-5.78-6.78-5.82-3.88,0-7.78,4.07-7.18,9.31L642.5,463q-2.25,5-4.84,10.24c-1.62,3.29-3.27,6.46-4.91,9.5q.66,104.53.35,209.07-.2,65.16-.76,130.32h16.12Q647.79,653.38,647.12,484.64Z"/><path class="cls-2" d="M485.85,113q0-23.64-.13-47.29c0-2.82.53-5.77-1.38-8.3,4.52-2.49,9.26-8.13,13.65-6,2.93,1.43.71,8.91.74,13.68.06,9.86,0,19.73,0,29.59C498.79,107.94,498.82,107.94,485.85,113Z"/><path class="cls-2" d="M646.85,857.32a1.5,1.5,0,0,0,0-3,1.5,1.5,0,0,0,0,3Z"/><path class="cls-2" d="M661.22,822.13q0-113.42,0-226.84c0-10.21.44-16.33,4.23-15.6,2.79.53,3.86,3.45,3.81,12.74-.12,24.88,0,49.77,0,74.65q0,77.53-.1,155Z"/><path class="cls-1" d="M1535.08,517.61c0-7.31,0-7.32,7.54-4.42q37.62,14.49,75.27,28.94c2.56,1,4.92,2.76,8.09,2.1l-.06-8.71c-28.56-11-57.09-22-85.71-32.91-3.83-1.46-5.45-3.28-5.38-7q.3-15.84-.21-31.68c-.17-5,1.35-5.6,6.48-3.5,25.65,10.49,51.42,20.76,77.19,31,2.27.91,4.39,2.71,7.32,1.71l-.06-8.71q-49.29-19.43-99-39.63-197.1-80.18-381.69-165c-1.11,10.8-1.88,22.56-2.08,35.16-.2,12.37.18,23.94.92,34.6,2.32.48,44.58,17.79,54.6,22,3.75,1.58,5.67,3.48,5.25,7.14a57.82,57.82,0,0,0,0,6.84q1.53,216.28,3.09,432.58l10,0q-1.5-215.32-3-430.63c-.06-9.07,0-9.08,9.24-5.16,27.48,11.59,54.93,23.23,82.47,34.72,3.67,1.53,5.38,3.25,5.4,7Q1312,621,1313.4,817.86l10.18,0q-1.36-192-2.72-384c0-1.87.09-3.74-.06-5.6-.25-3.19.79-4.14,4.5-2.61q44.33,18.32,88.77,36.44c2.82,1.15,3.94,2.71,3.76,5.31s0,5,0,7.47q1.22,171.41,2.44,342.79h10.16L1428,476.08a14.53,14.53,0,0,0,0-1.87c-.76-5.39.88-6.3,6.91-3.83q41.13,16.83,82.7,32.85c5.8,2.22,7.54,4.87,7.58,10.18q.88,152.26,2,304.53l10,.07q-1-148.65-2.09-297.29C1535.09,519.68,1535.08,518.65,1535.08,517.61ZM1204.81,358.22c0,3.19-1,3.85-4.44,2.28q-22.77-10.5-45.74-20.68a7.17,7.17,0,0,1-3.48-2.76,6.68,6.68,0,0,1-.76-3.87c.19-3.42.42-8.87.8-15.8l.45-23.66c27.1,11.43,46.85,19.83,49.92,21.14a5.58,5.58,0,0,1,2.89,2.4,4.78,4.78,0,0,1,.49,2.26Q1204.74,338.88,1204.81,358.22ZM1309.5,368.6c-.2,5.86-.2,11.71-.28,17.57s-.27,11.71-.19,17.57c0,3.16-1.09,3.73-4.48,2.24q-42.57-18.69-85.23-37.23c-2.34-1-3.48-2.32-3.44-4.58.24-12.49.44-25,.5-37.48,0-3.84,1.86-3.64,5.09-2.16q42.21,19.28,84.5,38.38C1309,364.29,1309.59,366.07,1309.5,368.6Zm106.08,85.53c-10.13-4.3-19.27-8.14-28.38-12-19.81-8.49-39.54-17.1-59.44-25.44-4-1.66-5.3-3.61-5.14-7.23.48-11.09.61-22.19.69-33.3,0-3.33.54-4.72,5-2.73,28.09,12.59,56.27,25,84.42,37.54,1.87.82,3.72,1.61,3.67,3.83C1416.07,427.54,1415.85,440.33,1415.58,454.13ZM1524,495.92c-1.58.91-4.46-1.17-5-1.54-3.68-2.52-28.26-12.61-89.07-35.71q.06-20.16.1-40.32c50.89,19.7,87.81,34,90.61,34.94a5.78,5.78,0,0,1,3.27,2.42,4.48,4.48,0,0,1,.52,2.16c.13,11.64.42,23.27.55,34.9C1525,494.65,1524.65,495.57,1524,495.92Z"/><rect class="cls-2" x="556.11" y="74.97" width="10.15" height="34.02"/><rect class="cls-2" x="520.59" y="74.97" width="10.15" height="34.02"/><rect class="cls-2" x="538.35" y="74.97" width="10.15" height="34.02"/><rect class="cls-1" x="573.87" y="74.97" width="10.15" height="34.02"/><rect class="cls-1" x="591.63" y="74.97" width="10.15" height="34.02"/><rect class="cls-1" x="609.39" y="74.97" width="10.15" height="34.02"/><line class="cls-3" x1="724.88" y1="146.31" x2="724.88" y2="822.13"/><line class="cls-4" x1="820.71" y1="189.24" x2="820.71" y2="822.13"/><line class="cls-5" x1="913.77" y1="238.77" x2="913.77" y2="823.53"/><line class="cls-6" x1="1015.56" y1="288.2" x2="1015.56" y2="823.53"/><line class="cls-7" x1="1147.99" y1="340.09" x2="1147.99" y2="818.66"/><line class="cls-8" x1="129.31" y1="234.68" x2="129.31" y2="817.29"/><line class="cls-9" x1="226.21" y1="189.24" x2="226.21" y2="819.71"/><line class="cls-10" x1="295.25" y1="152.09" x2="295.25" y2="823.53"/><line class="cls-11" x1="386" y1="106.29" x2="386" y2="828.41"/><rect class="cls-2" x="551.88" y="353.15" width="9.35" height="43.1"/><rect class="cls-2" x="519.14" y="353.15" width="9.35" height="43.1"/><rect class="cls-2" x="535.51" y="353.15" width="9.35" height="43.1"/><polyline class="cls-2" points="577.61 384.43 577.61 396.25 568.25 396.25 568.25 373.15"/><polyline class="cls-1" points="568.25 373.15 568.25 353.15 577.61 353.15 577.61 384.43"/><rect class="cls-1" x="584.62" y="353.15" width="9.35" height="43.1"/><rect class="cls-1" x="600.99" y="353.15" width="9.35" height="43.1"/><rect class="cls-2" x="548.58" y="638.6" width="8.39" height="51.1"/><rect class="cls-2" x="519.19" y="638.6" width="8.39" height="51.1"/><rect class="cls-2" x="533.88" y="638.6" width="8.39" height="51.1"/><rect class="cls-1" x="563.27" y="638.6" width="8.39" height="51.1"/><rect class="cls-1" x="577.96" y="638.6" width="8.39" height="51.1"/><rect class="cls-1" x="592.65" y="638.6" width="8.39" height="51.1"/><path class="cls-1" d="M654.07,8.29H652.4c-.38-1.31-.75-2.62-1.13-3.93h-1.1C649.92,1.78,649,0,648.16,0s-1.81,1.74-2.11,4.36h-1.29c-.32,1.31-.65,2.62-1,3.93h-2q-1,2.52-2,5h16.62Z"/><path class="cls-1" d="M525.61,9.2h-1.67c-.37-1.31-.75-2.61-1.12-3.92h-1.11c-.25-2.58-1.21-4.36-2-4.37s-1.82,1.75-2.12,4.37H516.3c-.32,1.31-.64,2.61-1,3.92h-2l-2,5H528Z"/><rect class="cls-2" x="648.85" y="54.77" width="4.02" height="14.67" transform="translate(2.63 -23.21) rotate(2.05)"/><rect class="cls-2" x="634.8" y="54.27" width="4.02" height="14.67" transform="translate(2.61 -22.71) rotate(2.05)"/><rect class="cls-2" x="641.82" y="54.52" width="4.02" height="14.67" transform="translate(2.62 -22.96) rotate(2.05)"/><rect class="cls-2" x="655.87" y="55.02" width="4.02" height="14.67" transform="translate(2.65 -23.46) rotate(2.05)"/><rect class="cls-2" x="662.9" y="55.28" width="4.02" height="14.67" transform="translate(2.66 -23.72) rotate(2.05)"/><rect class="cls-2" x="669.92" y="55.53" width="4.02" height="14.67" transform="matrix(1, 0.04, -0.04, 1, 2.67, -23.97)"/><path class="cls-2" d="M571.66,672v17.7h-8.25V661.28"/><line class="cls-12" x1="1094.12" y1="323" x2="1094.12" y2="823.53"/><line class="cls-13" x1="1160.26" y1="351.44" x2="1160.26" y2="818.66"/><line class="cls-14" x1="1195.56" y1="365.16" x2="1195.56" y2="823.53"/><line class="cls-13" x1="1290.38" y1="408.64" x2="1290.38" y2="818.2"/><line class="cls-13" x1="1380.37" y1="441.88" x2="1380.37" y2="820.79"/><line class="cls-13" x1="1467.45" y1="479.61" x2="1467.45" y2="825.43"/><path class="cls-1" d="M0,817.29V923.35H1622.57V817.29Zm54,87H20v-34H54Zm50.55,0h-34v-34h34Zm50.56,0h-34v-34h34Zm50.55,0h-34v-34h34Zm50.55,0h-34v-34h34Zm50.55,0h-34v-34h34Zm50.55,0h-34v-34h34Zm50.55,0h-34v-34h34Zm50.55,0h-34v-34h34Zm50.55,0H475v-34h34Zm50.55,0h-34v-34h34Zm50.55,0h-34v-34h34Zm50.55,0h-34v-34h34Zm50.55,0h-34v-34h34Zm50.56,0h-34v-34h34Zm50.55,0h-34v-34h34Zm50.55,0h-34v-34h34Zm50.55,0h-34v-34h34Zm50.55,0H930v-34h34Zm50.55,0h-34v-34h34Zm50.55,0h-34v-34h34Zm50.55,0h-34v-34h34Zm50.55,0h-34v-34h34Zm50.55,0h-34v-34h34Zm50.55,0h-34v-34h34Zm50.56,0h-34v-34h34Zm50.55,0h-34v-34h34Zm50.55,0h-34v-34h34Zm50.55,0h-34v-34h34Zm50.55,0h-34v-34h34Zm50.55,0h-34v-34h34Zm50.55,0h-34v-34h34Z"/></g></g></svg>